<svg xmlns="http://www.w3.org/2000/svg" xmlns:xlink="http://www.w3.org/1999/xlink" width="2000" zoomAndPan="magnify" viewBox="0 0 1500 1499.999933" height="2000" preserveAspectRatio="xMidYMid meet" version="1.0"><defs><g/><clipPath id="93fd142809"><path d="M 514 391.382812 L 986 391.382812 L 986 543 L 514 543 Z M 514 391.382812 " clip-rule="nonzero"/></clipPath><clipPath id="67b7de4c77"><path d="M 450 851 L 1050 851 L 1050 890.882812 L 450 890.882812 Z M 450 851 " clip-rule="nonzero"/></clipPath><clipPath id="a55f7a5c4a"><rect x="0" width="850" y="0" height="202"/></clipPath><clipPath id="f3966ca77e"><rect x="0" width="589" y="0" height="56"/></clipPath></defs><g clip-path="url(#93fd142809)"><path fill="#000000" d="M 514.824219 540.546875 C 514.625 542.902344 515.398438 542.664062 517.386719 542.636719 C 595.042969 542.492188 672.703125 542.613281 750.359375 542.578125 C 750.359375 542.570312 750.359375 542.558594 750.359375 542.558594 C 828.316406 542.558594 906.277344 542.558594 984.234375 542.59375 C 985.441406 542.59375 985.542969 542.492188 985.585938 541.371094 C 985.578125 529.65625 985.535156 517.9375 985.578125 506.222656 C 985.648438 498.917969 979.410156 493.492188 973.171875 490.871094 C 907.535156 461.355469 841.847656 431.933594 776.226562 402.367188 C 768.636719 398.9375 761.042969 395.503906 753.480469 392.023438 C 752.433594 391.546875 751.566406 391.511719 750.503906 391.992188 C 710.015625 409.90625 669.582031 427.957031 629.09375 445.875 C 594.007812 461.722656 558.492188 476.683594 523.605469 492.910156 C 518.917969 495.558594 514.746094 500.183594 514.78125 505.847656 C 514.859375 517.414062 514.816406 528.980469 514.824219 540.546875 Z M 577.78125 509.996094 C 633.222656 482.550781 689.015625 455.742188 744.695312 428.773438 C 747.6875 427.425781 751.089844 428.242188 754.265625 428.027344 C 756.023438 428.019531 757.675781 428.402344 759.261719 429.183594 C 763.828125 431.445312 768.410156 433.691406 772.996094 435.941406 C 822.996094 460.574219 873.128906 484.976562 923.015625 509.804688 C 809.785156 511.046875 691.328125 510.84375 577.78125 509.996094 Z M 577.78125 509.996094 " fill-opacity="1" fill-rule="nonzero"/></g><g clip-path="url(#67b7de4c77)"><path fill="#000000" d="M 1049.71875 887.996094 C 1049.707031 876.207031 1049.726562 864.40625 1049.699219 852.617188 C 1049.664062 851.574219 1049.5625 851.417969 1048.542969 851.394531 C 876.855469 851.257812 705.164062 851.480469 533.484375 851.351562 C 506.519531 851.34375 479.558594 851.308594 452.597656 851.300781 C 450.015625 851.300781 449.992188 850.992188 450 853.851562 C 450.027344 860.457031 450.027344 867.074219 450.050781 873.679688 C 450.070312 878.9375 450.113281 884.191406 450.144531 889.453125 C 450.152344 890.566406 450.273438 890.710938 451.464844 890.703125 C 550.902344 890.300781 650.339844 890.644531 749.777344 890.53125 C 749.777344 890.523438 749.777344 890.515625 749.777344 890.503906 C 849.136719 890.503906 948.507812 890.480469 1047.867188 890.558594 C 1049.949219 890.847656 1049.761719 889.699219 1049.71875 887.996094 Z M 1049.71875 887.996094 " fill-opacity="1" fill-rule="nonzero"/></g><path fill="#000000" d="M 487.773438 839.957031 C 487.773438 842.355469 487.628906 842.3125 490.078125 842.3125 C 576.828125 842.183594 663.578125 842.277344 750.324219 842.25 C 750.324219 842.25 750.324219 842.242188 750.324219 842.242188 C 837.21875 842.242188 924.121094 842.261719 1011.015625 842.261719 C 1012.996094 842.40625 1012.78125 841.753906 1012.796875 840.074219 C 1012.78125 828.507812 1012.824219 816.941406 1012.773438 805.375 C 1012.722656 804.671875 1012.523438 804.441406 1011.804688 804.433594 C 948.644531 804.296875 885.472656 804.425781 822.3125 804.382812 C 711.609375 804.382812 600.894531 804.355469 490.191406 804.382812 C 487.570312 804.382812 487.757812 804.210938 487.757812 806.832031 C 487.757812 817.875 487.765625 828.921875 487.773438 839.957031 Z M 487.773438 839.957031 " fill-opacity="1" fill-rule="nonzero"/><path fill="#000000" d="M 976.15625 585.757812 C 977.507812 585.835938 976.976562 584.070312 977.097656 583.195312 C 977.113281 578.992188 977.132812 574.785156 977.132812 570.585938 C 977.132812 565.101562 977.121094 559.617188 977.105469 554.144531 C 977.097656 552.714844 977.019531 552.636719 975.546875 552.644531 C 900.457031 552.953125 825.363281 552.671875 750.265625 552.765625 C 750.265625 552.773438 750.265625 552.789062 750.265625 552.800781 C 675.324219 552.789062 600.382812 552.875 525.4375 552.628906 C 523.261719 552.617188 523.246094 552.480469 523.253906 554.863281 C 523.3125 564.921875 523.269531 574.988281 523.355469 585.046875 C 523.375 585.46875 523.589844 585.757812 524.035156 585.777344 C 674.730469 585.785156 825.449219 585.808594 976.15625 585.757812 Z M 976.15625 585.757812 " fill-opacity="1" fill-rule="nonzero"/><path fill="#000000" d="M 886.226562 663.992188 C 885.980469 641.621094 885.894531 619.242188 885.59375 596.871094 C 885.566406 596.433594 885.3125 596.195312 884.882812 596.175781 C 873.46875 596.132812 862.058594 596.195312 850.644531 596.195312 C 849.824219 596.238281 848.460938 595.902344 848.554688 597.136719 C 848.253906 617.410156 848.203125 637.679688 847.988281 657.949219 C 847.691406 700.746094 847.039062 743.542969 846.875 786.332031 C 846.882812 786.851562 847.105469 787.179688 847.664062 787.195312 C 860.277344 787.316406 872.886719 787.195312 885.507812 787.230469 C 887.828125 787.511719 887.332031 786.277344 887.375 784.496094 C 887 753.644531 886.792969 722.78125 886.492188 691.921875 C 886.535156 691.921875 886.570312 691.921875 886.613281 691.921875 C 886.476562 682.609375 886.3125 673.304688 886.226562 663.992188 Z M 886.226562 663.992188 " fill-opacity="1" fill-rule="nonzero"/><path fill="#000000" d="M 689.8125 765.597656 C 689.761719 772.355469 689.75 779.117188 689.742188 785.867188 C 689.453125 787.742188 691.148438 787.085938 692.339844 787.222656 C 704.652344 787.210938 716.972656 787.238281 729.28125 787.222656 C 729.804688 787.210938 730.140625 786.988281 730.148438 786.433594 C 729.695312 732.371094 729.164062 678.300781 728.546875 624.238281 C 728.460938 615.675781 728.433594 607.117188 728.367188 598.558594 C 728.347656 596.058594 728.511719 596.203125 726.078125 596.210938 C 715.488281 596.21875 704.898438 596.21875 694.308594 596.21875 C 691.132812 596.21875 691.492188 595.773438 691.472656 599.125 C 691.472656 630.0625 691.019531 661 690.609375 691.9375 C 690.617188 691.9375 690.617188 691.9375 690.625 691.9375 C 690.265625 716.484375 689.964844 741.039062 689.8125 765.597656 Z M 689.8125 765.597656 " fill-opacity="1" fill-rule="nonzero"/><path fill="#000000" d="M 649.78125 598.5 C 649.765625 595.835938 649.695312 596.203125 647.425781 596.203125 C 636.761719 596.203125 626.09375 596.21875 615.433594 596.230469 C 612.890625 596.230469 613.011719 595.878906 612.992188 598.628906 C 612.71875 629.847656 612.539062 660.382812 612.324219 691.886719 C 611.769531 722.570312 611.5625 754.117188 611.3125 784.949219 C 611.296875 787.308594 611.203125 787.160156 613.507812 787.1875 C 625.894531 787.1875 638.292969 787.210938 650.683594 787.195312 C 651.222656 787.195312 651.53125 786.921875 651.546875 786.398438 C 651.523438 769.425781 651.121094 752.453125 650.992188 735.480469 C 650.46875 689.832031 649.929688 644.164062 649.78125 598.5 Z M 649.78125 598.5 " fill-opacity="1" fill-rule="nonzero"/><path fill="#000000" d="M 768.746094 758.332031 C 768.675781 766.890625 768.574219 775.449219 768.566406 784 C 768.566406 787.65625 767.976562 787.210938 771.777344 787.222656 C 783.113281 787.246094 794.449219 787.222656 805.785156 787.210938 C 808.929688 787.210938 808.601562 787.605469 808.585938 784.515625 C 808.304688 723.03125 807.292969 661.558594 806.8125 600.074219 C 806.804688 599.023438 806.785156 597.976562 806.746094 596.921875 C 806.648438 595.824219 805.183594 596.316406 804.449219 596.203125 C 793.710938 596.203125 782.976562 596.210938 772.242188 596.210938 C 770.269531 596.210938 770.304688 596.144531 770.289062 598.207031 C 770.023438 629.359375 769.679688 660.511719 769.371094 691.664062 C 769.390625 691.664062 769.414062 691.664062 769.433594 691.664062 C 769.175781 713.890625 768.917969 736.105469 768.746094 758.332031 Z M 768.746094 758.332031 " fill-opacity="1" fill-rule="nonzero"/><path fill="#000000" d="M 964.238281 666.203125 C 964.015625 643.609375 963.800781 621.007812 963.578125 598.414062 C 963.550781 596.058594 963.636719 596.1875 961.375 596.1875 C 950.5625 596.195312 939.75 596.195312 928.9375 596.203125 C 928.285156 596.210938 927.136719 595.980469 927.113281 596.914062 C 926.976562 605.617188 926.941406 614.332031 926.828125 623.039062 C 926.128906 676.859375 925.851562 730.691406 925.382812 784.523438 C 925.363281 787.539062 924.988281 787.246094 928.191406 787.246094 C 940.28125 787.246094 952.371094 787.265625 964.449219 787.222656 C 965.160156 787.179688 965.324219 787.007812 965.367188 786.246094 C 965.496094 754.785156 964.863281 723.332031 964.476562 691.878906 C 964.492188 691.878906 964.511719 691.878906 964.527344 691.878906 C 964.433594 683.320312 964.324219 674.761719 964.238281 666.203125 Z M 964.238281 666.203125 " fill-opacity="1" fill-rule="nonzero"/><path fill="#000000" d="M 572.160156 698.800781 C 571.867188 665.464844 571.542969 632.117188 571.277344 598.78125 C 571.25 595.867188 571.355469 596.195312 568.75 596.195312 C 558.160156 596.195312 547.570312 596.210938 536.980469 596.210938 C 534.382812 596.210938 534.574219 595.972656 534.539062 598.652344 C 534.160156 660.890625 533.347656 722.578125 533.148438 784.515625 C 533.140625 787.554688 532.808594 787.238281 535.953125 787.238281 C 547.894531 787.246094 559.828125 787.210938 571.773438 787.222656 C 572.714844 787.195312 572.84375 787.085938 572.878906 786.21875 C 572.597656 757.070312 572.363281 727.933594 572.160156 698.800781 Z M 572.160156 698.800781 " fill-opacity="1" fill-rule="nonzero"/><g transform="matrix(1, 0, 0, 1, 327, 886)"><g clip-path="url(#a55f7a5c4a)"><g fill="#000000" fill-opacity="1"><g transform="translate(3.122247, 159.436902)"><g><path d="M 13.640625 -115.109375 L 40.28125 -115.109375 L 40.28125 0 L 13.640625 0 Z M 13.640625 -115.109375 "/></g></g></g><g fill="#000000" fill-opacity="1"><g transform="translate(57.042409, 159.436902)"><g><path d="M 86.984375 0 L 64.78125 -32.0625 L 40.28125 -32.0625 L 40.28125 0 L 13.640625 0 L 13.640625 -115.109375 L 63.46875 -115.109375 C 73.664062 -115.109375 82.519531 -113.40625 90.03125 -110 C 97.539062 -106.601562 103.320312 -101.78125 107.375 -95.53125 C 111.4375 -89.289062 113.46875 -81.894531 113.46875 -73.34375 C 113.46875 -64.789062 111.410156 -57.414062 107.296875 -51.21875 C 103.179688 -45.03125 97.34375 -40.289062 89.78125 -37 L 115.59375 0 Z M 86.5 -73.34375 C 86.5 -79.8125 84.414062 -84.769531 80.25 -88.21875 C 76.082031 -91.675781 70 -93.40625 62 -93.40625 L 40.28125 -93.40625 L 40.28125 -53.28125 L 62 -53.28125 C 70 -53.28125 76.082031 -55.03125 80.25 -58.53125 C 84.414062 -62.039062 86.5 -66.976562 86.5 -73.34375 Z M 86.5 -73.34375 "/></g></g></g><g fill="#000000" fill-opacity="1"><g transform="translate(177.869624, 159.436902)"><g><path d="M 13.640625 -115.109375 L 40.28125 -115.109375 L 40.28125 0 L 13.640625 0 Z M 13.640625 -115.109375 "/></g></g></g><g fill="#000000" fill-opacity="1"><g transform="translate(231.789787, 159.436902)"><g><path d="M 51.46875 1.96875 C 42.375 1.96875 33.578125 0.738281 25.078125 -1.71875 C 16.578125 -4.1875 9.753906 -7.394531 4.609375 -11.34375 L 13.640625 -31.40625 C 18.578125 -27.789062 24.441406 -24.882812 31.234375 -22.6875 C 38.035156 -20.5 44.835938 -19.40625 51.640625 -19.40625 C 59.203125 -19.40625 64.789062 -20.523438 68.40625 -22.765625 C 72.019531 -25.015625 73.828125 -28.003906 73.828125 -31.734375 C 73.828125 -34.472656 72.757812 -36.75 70.625 -38.5625 C 68.488281 -40.375 65.75 -41.828125 62.40625 -42.921875 C 59.0625 -44.015625 54.539062 -45.21875 48.84375 -46.53125 C 40.070312 -48.613281 32.890625 -50.695312 27.296875 -52.78125 C 21.703125 -54.863281 16.90625 -58.207031 12.90625 -62.8125 C 8.90625 -67.414062 6.90625 -73.554688 6.90625 -81.234375 C 6.90625 -87.921875 8.710938 -93.976562 12.328125 -99.40625 C 15.953125 -104.832031 21.40625 -109.132812 28.6875 -112.3125 C 35.976562 -115.488281 44.890625 -117.078125 55.421875 -117.078125 C 62.765625 -117.078125 69.941406 -116.195312 76.953125 -114.4375 C 83.972656 -112.6875 90.113281 -110.171875 95.375 -106.890625 L 87.15625 -86.65625 C 76.519531 -92.6875 65.882812 -95.703125 55.25 -95.703125 C 47.789062 -95.703125 42.28125 -94.492188 38.71875 -92.078125 C 35.15625 -89.671875 33.375 -86.492188 33.375 -82.546875 C 33.375 -78.597656 35.429688 -75.664062 39.546875 -73.75 C 43.660156 -71.832031 49.9375 -69.941406 58.375 -68.078125 C 67.144531 -65.992188 74.320312 -63.910156 79.90625 -61.828125 C 85.5 -59.742188 90.296875 -56.453125 94.296875 -51.953125 C 98.304688 -47.460938 100.3125 -41.378906 100.3125 -33.703125 C 100.3125 -27.128906 98.472656 -21.128906 94.796875 -15.703125 C 91.128906 -10.273438 85.617188 -5.972656 78.265625 -2.796875 C 70.921875 0.378906 61.988281 1.96875 51.46875 1.96875 Z M 51.46875 1.96875 "/></g></g></g><g fill="#000000" fill-opacity="1"><g transform="translate(336.671125, 159.436902)"><g><path d="M 98.171875 -59.859375 C 104.742188 -57.773438 109.894531 -54.289062 113.625 -49.40625 C 117.351562 -44.53125 119.21875 -38.53125 119.21875 -31.40625 C 119.21875 -21.320312 115.296875 -13.566406 107.453125 -8.140625 C 99.617188 -2.710938 88.191406 0 73.171875 0 L 13.640625 0 L 13.640625 -115.109375 L 69.890625 -115.109375 C 83.921875 -115.109375 94.691406 -112.421875 102.203125 -107.046875 C 109.710938 -101.671875 113.46875 -94.378906 113.46875 -85.171875 C 113.46875 -79.585938 112.125 -74.601562 109.4375 -70.21875 C 106.75 -65.832031 102.992188 -62.378906 98.171875 -59.859375 Z M 40.125 -95.046875 L 40.125 -67.90625 L 66.59375 -67.90625 C 73.175781 -67.90625 78.164062 -69.054688 81.5625 -71.359375 C 84.957031 -73.660156 86.65625 -77.0625 86.65625 -81.5625 C 86.65625 -86.050781 84.957031 -89.421875 81.5625 -91.671875 C 78.164062 -93.921875 73.175781 -95.046875 66.59375 -95.046875 Z M 71.203125 -20.0625 C 78.210938 -20.0625 83.5 -21.210938 87.0625 -23.515625 C 90.625 -25.816406 92.40625 -29.378906 92.40625 -34.203125 C 92.40625 -43.742188 85.335938 -48.515625 71.203125 -48.515625 L 40.125 -48.515625 L 40.125 -20.0625 Z M 71.203125 -20.0625 "/></g></g></g><g fill="#000000" fill-opacity="1"><g transform="translate(462.430055, 159.436902)"><g><path d="M 89.453125 -24.671875 L 36.015625 -24.671875 L 25.8125 0 L -1.484375 0 L 49.828125 -115.109375 L 76.140625 -115.109375 L 127.609375 0 L 99.65625 0 Z M 81.0625 -44.890625 L 62.8125 -88.953125 L 44.5625 -44.890625 Z M 81.0625 -44.890625 "/></g></g></g><g fill="#000000" fill-opacity="1"><g transform="translate(588.353415, 159.436902)"><g><path d="M 119.21875 -115.109375 L 119.21875 0 L 97.34375 0 L 39.953125 -69.890625 L 39.953125 0 L 13.640625 0 L 13.640625 -115.109375 L 35.6875 -115.109375 L 92.90625 -45.21875 L 92.90625 -115.109375 Z M 119.21875 -115.109375 "/></g></g></g><g fill="#000000" fill-opacity="1"><g transform="translate(721.181179, 159.436902)"><g><path d="M 55.578125 -45.21875 L 40.125 -29.109375 L 40.125 0 L 13.640625 0 L 13.640625 -115.109375 L 40.125 -115.109375 L 40.125 -61.328125 L 91.09375 -115.109375 L 120.703125 -115.109375 L 73.015625 -63.796875 L 123.5 0 L 92.40625 0 Z M 55.578125 -45.21875 "/></g></g></g></g></g><g transform="matrix(1, 0, 0, 1, 467, 1083)"><g clip-path="url(#f3966ca77e)"><g fill="#000000" fill-opacity="1"><g transform="translate(1.797893, 42.978399)"><g><path d="M 18.5625 0.53125 C 15.363281 0.53125 12.476562 -0.15625 9.90625 -1.53125 C 7.34375 -2.914062 5.335938 -4.816406 3.890625 -7.234375 C 2.441406 -9.648438 1.71875 -12.367188 1.71875 -15.390625 C 1.71875 -18.410156 2.441406 -21.128906 3.890625 -23.546875 C 5.335938 -25.972656 7.34375 -27.875 9.90625 -29.25 C 12.476562 -30.625 15.363281 -31.3125 18.5625 -31.3125 C 21.757812 -31.3125 24.632812 -30.625 27.1875 -29.25 C 29.738281 -27.875 31.742188 -25.972656 33.203125 -23.546875 C 34.671875 -21.128906 35.40625 -18.410156 35.40625 -15.390625 C 35.40625 -12.367188 34.671875 -9.648438 33.203125 -7.234375 C 31.742188 -4.816406 29.738281 -2.914062 27.1875 -1.53125 C 24.632812 -0.15625 21.757812 0.53125 18.5625 0.53125 Z M 18.5625 -5.546875 C 20.375 -5.546875 22.015625 -5.960938 23.484375 -6.796875 C 24.953125 -7.628906 26.101562 -8.789062 26.9375 -10.28125 C 27.769531 -11.78125 28.1875 -13.484375 28.1875 -15.390625 C 28.1875 -17.296875 27.769531 -18.992188 26.9375 -20.484375 C 26.101562 -21.984375 24.953125 -23.148438 23.484375 -23.984375 C 22.015625 -24.828125 20.375 -25.25 18.5625 -25.25 C 16.738281 -25.25 15.09375 -24.828125 13.625 -23.984375 C 12.164062 -23.148438 11.015625 -21.984375 10.171875 -20.484375 C 9.335938 -18.992188 8.921875 -17.296875 8.921875 -15.390625 C 8.921875 -13.484375 9.335938 -11.78125 10.171875 -10.28125 C 11.015625 -8.789062 12.164062 -7.628906 13.625 -6.796875 C 15.09375 -5.960938 16.738281 -5.546875 18.5625 -5.546875 Z M 18.5625 -5.546875 "/></g></g></g><g fill="#000000" fill-opacity="1"><g transform="translate(62.491674, 42.978399)"><g><path d="M 31.890625 -30.796875 L 31.890625 0 L 26.03125 0 L 10.6875 -18.6875 L 10.6875 0 L 3.65625 0 L 3.65625 -30.796875 L 9.546875 -30.796875 L 24.84375 -12.09375 L 24.84375 -30.796875 Z M 31.890625 -30.796875 "/></g></g></g><g fill="#000000" fill-opacity="1"><g transform="translate(121.602601, 42.978399)"><g><path d="M 3.65625 -30.796875 L 10.78125 -30.796875 L 10.78125 -5.8125 L 26.21875 -5.8125 L 26.21875 0 L 3.65625 0 Z M 3.65625 -30.796875 "/></g></g></g><g fill="#000000" fill-opacity="1"><g transform="translate(171.743832, 42.978399)"><g><path d="M 3.65625 -30.796875 L 10.78125 -30.796875 L 10.78125 0 L 3.65625 0 Z M 3.65625 -30.796875 "/></g></g></g><g fill="#000000" fill-opacity="1"><g transform="translate(209.749658, 42.978399)"><g><path d="M 31.890625 -30.796875 L 31.890625 0 L 26.03125 0 L 10.6875 -18.6875 L 10.6875 0 L 3.65625 0 L 3.65625 -30.796875 L 9.546875 -30.796875 L 24.84375 -12.09375 L 24.84375 -30.796875 Z M 31.890625 -30.796875 "/></g></g></g><g fill="#000000" fill-opacity="1"><g transform="translate(268.860584, 42.978399)"><g><path d="M 27.484375 -5.71875 L 27.484375 0 L 3.65625 0 L 3.65625 -30.796875 L 26.921875 -30.796875 L 26.921875 -25.078125 L 10.734375 -25.078125 L 10.734375 -18.390625 L 25.03125 -18.390625 L 25.03125 -12.84375 L 10.734375 -12.84375 L 10.734375 -5.71875 Z M 27.484375 -5.71875 "/></g></g></g><g fill="#000000" fill-opacity="1"><g transform="translate(321.947752, 42.978399)"><g/></g></g><g fill="#000000" fill-opacity="1"><g transform="translate(357.974986, 42.978399)"><g><path d="M 26.265625 -16.015625 C 28.015625 -15.453125 29.390625 -14.519531 30.390625 -13.21875 C 31.390625 -11.914062 31.890625 -10.3125 31.890625 -8.40625 C 31.890625 -5.707031 30.835938 -3.628906 28.734375 -2.171875 C 26.640625 -0.722656 23.585938 0 19.578125 0 L 3.65625 0 L 3.65625 -30.796875 L 18.6875 -30.796875 C 22.445312 -30.796875 25.328125 -30.078125 27.328125 -28.640625 C 29.335938 -27.203125 30.34375 -25.25 30.34375 -22.78125 C 30.34375 -21.289062 29.984375 -19.957031 29.265625 -18.78125 C 28.546875 -17.601562 27.546875 -16.679688 26.265625 -16.015625 Z M 10.734375 -25.421875 L 10.734375 -18.171875 L 17.8125 -18.171875 C 19.570312 -18.171875 20.90625 -18.476562 21.8125 -19.09375 C 22.726562 -19.707031 23.1875 -20.613281 23.1875 -21.8125 C 23.1875 -23.019531 22.726562 -23.921875 21.8125 -24.515625 C 20.90625 -25.117188 19.570312 -25.421875 17.8125 -25.421875 Z M 19.046875 -5.359375 C 20.921875 -5.359375 22.332031 -5.664062 23.28125 -6.28125 C 24.238281 -6.90625 24.71875 -7.863281 24.71875 -9.15625 C 24.71875 -11.695312 22.828125 -12.96875 19.046875 -12.96875 L 10.734375 -12.96875 L 10.734375 -5.359375 Z M 19.046875 -5.359375 "/></g></g></g><g fill="#000000" fill-opacity="1"><g transform="translate(415.195211, 42.978399)"><g><path d="M 23.921875 -6.59375 L 9.625 -6.59375 L 6.90625 0 L -0.390625 0 L 13.328125 -30.796875 L 20.359375 -30.796875 L 34.125 0 L 26.65625 0 Z M 21.6875 -12 L 16.796875 -23.796875 L 11.921875 -12 Z M 21.6875 -12 "/></g></g></g><g fill="#000000" fill-opacity="1"><g transform="translate(472.459428, 42.978399)"><g><path d="M 31.890625 -30.796875 L 31.890625 0 L 26.03125 0 L 10.6875 -18.6875 L 10.6875 0 L 3.65625 0 L 3.65625 -30.796875 L 9.546875 -30.796875 L 24.84375 -12.09375 L 24.84375 -30.796875 Z M 31.890625 -30.796875 "/></g></g></g><g fill="#000000" fill-opacity="1"><g transform="translate(531.570355, 42.978399)"><g><path d="M 14.859375 -12.09375 L 10.734375 -7.78125 L 10.734375 0 L 3.65625 0 L 3.65625 -30.796875 L 10.734375 -30.796875 L 10.734375 -16.40625 L 24.375 -30.796875 L 32.28125 -30.796875 L 19.53125 -17.0625 L 33.03125 0 L 24.71875 0 Z M 14.859375 -12.09375 "/></g></g></g></g></g></svg>